<svg width="512" height="448" viewBox="0 0 512 448" fill="none" xmlns="http://www.w3.org/2000/svg">
<path d="M220.6 89.2L271.1 64H448V160H333.2C311.3 144.9 284.7 136 256 136C227.3 136 200.8 144.9 178.8 160H64V96H192C201.9 96 211.7 93.7 220.6 89.2ZM0 96V384C0 419.3 28.7 448 64 448H448C483.3 448 512 419.3 512 384V64C512 28.7 483.3 0 448 0H271.1C261.2 0 251.4 2.3 242.5 6.8L192 32H160V16C160 7.2 152.8 0 144 0H80C71.2 0 64 7.2 64 16V32C28.7 32 0 60.7 0 96ZM168 272C168 248.661 177.271 226.278 193.775 209.775C210.278 193.271 232.661 184 256 184C279.339 184 301.722 193.271 318.225 209.775C334.729 226.278 344 248.661 344 272C344 295.339 334.729 317.722 318.225 334.225C301.722 350.729 279.339 360 256 360C232.661 360 210.278 350.729 193.775 334.225C177.271 317.722 168 295.339 168 272Z" fill="white"/>
</svg>
