<svg width="259" height="259" viewBox="0 0 259 259" fill="none" xmlns="http://www.w3.org/2000/svg">
<rect width="259" height="259" rx="40" fill="black"/>
<path d="M115.688 162.125C115.562 162.625 114.625 163.875 112.875 165.875C111.625 167.375 109.958 168.708 107.875 169.875C105.792 171 103 171.875 99.5 172.5C96.0417 173.167 91.4792 173.5 85.8125 173.5C78.2708 173.5 71.8333 173.104 66.5 172.312C61.1667 171.562 56.8125 170.396 53.4375 168.812C50.0625 167.188 47.5833 165.125 46 162.625C44.4583 160.125 43.6875 157.146 43.6875 153.688C43.6875 150.062 44.1042 147 44.9375 144.5C45.8125 141.958 47.0625 139.833 48.6875 138.125C50.3542 136.417 52.3542 135.083 54.6875 134.125C57.0208 133.167 59.6667 132.438 62.625 131.938C65.625 131.438 68.8958 131.125 72.4375 131C75.9792 130.875 79.75 130.812 83.75 130.812C89.4583 130.812 94.2292 131.062 98.0625 131.562C101.896 132.021 105.021 132.625 107.438 133.375C109.896 134.083 111.75 134.854 113 135.688C114.25 136.521 115.146 137.292 115.688 138C115.688 133.333 115.479 129.354 115.062 126.062C114.688 122.771 114.042 120.021 113.125 117.812C112.25 115.604 111.104 113.854 109.688 112.562C108.271 111.229 106.521 110.229 104.438 109.562C102.396 108.896 100 108.479 97.25 108.312C94.5 108.104 91.3542 108 87.8125 108C82.3125 108 77.75 108.146 74.125 108.438C70.5 108.688 67.625 109.208 65.5 110C63.375 110.792 61.875 111.896 61 113.312C60.125 114.688 59.6875 116.5 59.6875 118.75H47.6875C47.6875 114.958 48.3542 111.75 49.6875 109.125C51.0625 106.5 53.3125 104.375 56.4375 102.75C59.6042 101.083 63.75 99.875 68.875 99.125C74 98.375 80.3125 98 87.8125 98C95.1458 98 101.354 98.6042 106.438 99.8125C111.521 101.021 115.625 103.146 118.75 106.188C121.917 109.229 124.188 113.333 125.562 118.5C126.979 123.625 127.688 130.125 127.688 138V172H115.688V162.125ZM87.8125 164C93.1042 164 97.5208 163.75 101.062 163.25C104.646 162.75 107.521 162 109.688 161C111.854 160 113.396 158.75 114.312 157.25C115.229 155.75 115.688 154 115.688 152C115.688 150 115.146 148.312 114.062 146.938C113.021 145.521 111.25 144.375 108.75 143.5C106.292 142.625 103.021 142 98.9375 141.625C94.8542 141.208 89.8125 141 83.8125 141C77.8125 141 72.9583 141.104 69.25 141.312C65.5833 141.521 62.75 142 60.75 142.75C58.75 143.5 57.3958 144.604 56.6875 146.062C56.0208 147.521 55.6875 149.5 55.6875 152C55.6875 154.5 56.0417 156.542 56.75 158.125C57.5 159.667 59 160.875 61.25 161.75C63.5 162.625 66.7292 163.229 70.9375 163.562C75.1875 163.854 80.8125 164 87.8125 164Z" fill="white"/>
<path d="M177 173.375C171.25 173.375 166.458 172.979 162.625 172.188C158.833 171.438 155.729 170.625 153.312 169.75C150.896 168.833 149.062 167.417 147.812 165.5C146.562 163.542 145.625 162.021 145 160.938V172H133V76H145V106.812C145.542 105.938 146.438 105 147.688 104C148.979 102.958 150.833 102 153.25 101.125C155.708 100.208 158.854 99.4583 162.688 98.875C166.521 98.2917 171.292 98 177 98C185 98 191.792 98.6042 197.375 99.8125C202.958 101.021 207.5 103.083 211 106C214.5 108.917 217.042 112.833 218.625 117.75C220.208 122.625 221 128.75 221 136.125C221 143.375 220.208 149.396 218.625 154.188C217.042 158.979 214.5 162.792 211 165.625C207.5 168.458 202.958 170.458 197.375 171.625C191.792 172.792 185 173.375 177 173.375ZM177 164C181.667 164 185.688 163.854 189.062 163.562C192.479 163.271 195.375 162.75 197.75 162C200.125 161.25 202.042 160.208 203.5 158.875C205 157.542 206.146 155.854 206.938 153.812C207.771 151.729 208.312 149.25 208.562 146.375C208.854 143.458 209 140.042 209 136.125C209 132.208 208.854 128.792 208.562 125.875C208.312 122.958 207.771 120.479 206.938 118.438C206.146 116.354 205 114.646 203.5 113.312C202.042 111.938 200.125 110.875 197.75 110.125C195.375 109.333 192.479 108.792 189.062 108.5C185.688 108.208 181.667 108.062 177 108.062C173 108.062 169.438 108.167 166.312 108.375C163.188 108.542 160.438 108.958 158.062 109.625C155.688 110.292 153.667 111.25 152 112.5C150.375 113.75 149.042 115.417 148 117.5C146.958 119.583 146.188 122.167 145.688 125.25C145.229 128.333 145 132.021 145 136.312C145 140.562 145.229 144.208 145.688 147.25C146.188 150.25 146.958 152.771 148 154.812C149.042 156.854 150.375 158.5 152 159.75C153.667 160.958 155.688 161.875 158.062 162.5C160.438 163.125 163.188 163.542 166.312 163.75C169.438 163.917 173 164 177 164Z" fill="white"/>
<path d="M30.7806 77.6675C32.0176 76.9063 32.8624 75.6448 33.0954 74.2112L39.3047 36L42.8888 73.8109C43.0463 75.4718 44.0218 76.9448 45.4896 77.7379L65.6094 88.6094L45.4896 99.4808C44.0218 100.274 43.0463 101.747 42.8888 103.408L39.3047 141.219L33.0954 103.008C32.8624 101.574 32.0176 100.312 30.7806 99.5513L13 88.6094L30.7806 77.6675Z" fill="white"/>
<path d="M222.158 167.877C223.395 167.115 224.239 165.854 224.472 164.42L227.141 148L228.659 164.02C228.817 165.681 229.792 167.154 231.26 167.947L239.281 172.281L231.26 176.615C229.792 177.409 228.817 178.882 228.659 180.543L227.141 196.562L224.472 180.142C224.239 178.709 223.395 177.447 222.158 176.686L215 172.281L222.158 167.877Z" fill="white"/>
</svg>
