<svg width="448" height="512" viewBox="0 0 448 512" fill="none" xmlns="http://www.w3.org/2000/svg">
<g clip-path="url(#clip0_630_54)">
<path d="M159.3 5.39999C167.1 -1.90001 179.2 -1.80001 187 5.49999C214.6 31.4 240.5 59.3 264.7 89.5C275.7 75.1 288.2 59.4 301.7 46.6C309.6 39.2 321.8 39.2 329.7 46.7C364.3 79.7 393.6 123.3 414.2 164.7C434.5 205.5 448 247.2 448 276.6C448 404.2 348.2 512 224 512C98.4 512 0 404.1 0 276.5C0 238.1 17.8 191.2 45.4 144.8C73.3 97.7 112.7 48.6 159.3 5.39999ZM225.7 416C251 416 273.4 409 294.5 395C336.6 365.6 347.9 306.8 322.6 260.6C318.1 251.6 306.6 251 300.1 258.6L274.9 287.9C268.3 295.5 256.4 295.3 250.2 287.4C233.7 266.4 204.2 228.9 187.4 207.6C181.1 199.6 169.1 199.5 162.7 207.5C128.9 250 111.9 276.8 111.9 306.9C112 375.4 162.6 416 225.7 416Z" fill="white"/>
</g>
<defs>
<clipPath id="clip0_630_54">
<rect width="448" height="512" fill="white"/>
</clipPath>
</defs>
</svg>
