<svg width="113" height="113" viewBox="0 0 113 113" fill="none" xmlns="http://www.w3.org/2000/svg">
<path d="M56.5126 27.5282C40.4796 27.5282 27.5473 40.4634 27.5473 56.5C27.5473 72.5366 40.4796 85.4718 56.5126 85.4718C72.5456 85.4718 85.4779 72.5366 85.4779 56.5C85.4779 40.4634 72.5456 27.5282 56.5126 27.5282ZM56.5126 75.3354C46.1516 75.3354 37.6814 66.8885 37.6814 56.5C37.6814 46.1115 46.1264 37.6646 56.5126 37.6646C66.8988 37.6646 75.3438 46.1115 75.3438 56.5C75.3438 66.8885 66.8736 75.3354 56.5126 75.3354ZM93.4188 26.3431C93.4188 30.1001 90.3937 33.1007 86.6628 33.1007C82.9066 33.1007 79.9067 30.0749 79.9067 26.3431C79.9067 22.6113 82.9318 19.5856 86.6628 19.5856C90.3937 19.5856 93.4188 22.6113 93.4188 26.3431ZM112.603 33.2016C112.174 24.1495 110.107 16.1312 103.477 9.52488C96.8725 2.91861 88.8559 0.850999 79.8059 0.397133C70.4785 -0.132378 42.5215 -0.132378 33.1941 0.397133C24.1693 0.825784 16.1528 2.89339 9.52276 9.49967C2.89275 16.1059 0.850809 24.1242 0.397044 33.1763C-0.132348 42.5058 -0.132348 70.469 0.397044 79.7984C0.8256 88.8506 2.89275 96.8689 9.52276 103.475C16.1528 110.081 24.1441 112.149 33.1941 112.603C42.5215 113.132 70.4785 113.132 79.8059 112.603C88.8559 112.174 96.8725 110.107 103.477 103.475C110.082 96.8689 112.149 88.8506 112.603 79.7984C113.132 70.469 113.132 42.531 112.603 33.2016ZM100.553 89.8087C98.5867 94.7508 94.7801 98.5582 89.8139 100.55C82.3772 103.5 64.7308 102.82 56.5126 102.82C48.2944 102.82 30.6228 103.475 23.2113 100.55C18.2703 98.5835 14.4637 94.776 12.4722 89.8087C9.52276 82.3704 10.2034 64.72 10.2034 56.5C10.2034 48.28 9.54797 30.6044 12.4722 23.1913C14.4385 18.2492 18.2451 14.4418 23.2113 12.4498C30.648 9.49967 48.2944 10.1805 56.5126 10.1805C64.7308 10.1805 82.4024 9.52488 89.8139 12.4498C94.7549 14.4165 98.5615 18.224 100.553 23.1913C103.502 30.6296 102.822 48.28 102.822 56.5C102.822 64.72 103.502 82.3956 100.553 89.8087Z" fill="#0B1C2A"/>
</svg>
