<svg width="113" height="113" viewBox="0 0 113 113" fill="none" xmlns="http://www.w3.org/2000/svg">
<path d="M56.5 0C25.2883 0 0 25.2883 0 56.5C0 87.7117 25.2883 113 56.5 113C87.7117 113 113 87.7117 113 56.5C113 25.2883 87.7117 0 56.5 0ZM82.6996 38.4337C81.8567 47.3643 78.1659 69.053 76.2978 79.0544C75.5004 83.2919 73.9512 84.7044 72.4476 84.8411C69.1669 85.1373 66.6837 82.6768 63.4942 80.5808C58.5276 77.323 55.7026 75.2954 50.8956 72.1059C45.3139 68.4379 48.9363 66.4103 52.103 63.1069C52.946 62.2411 67.3899 49.0958 67.6633 47.9111C67.7089 47.7516 67.7317 47.2048 67.3899 46.9087C67.0482 46.6125 66.5698 46.7264 66.228 46.7948C65.7268 46.9011 57.7834 52.1486 42.3978 62.5373C40.1499 64.0865 38.1071 64.8383 36.2694 64.7927C34.2417 64.7472 30.3687 63.6536 27.4754 62.7196C23.9442 61.5804 21.1192 60.9653 21.3698 59.0061C21.4913 57.9884 22.8962 56.9481 25.5845 55.8849C42.0485 48.7161 53.0295 43.9849 58.5276 41.6915C74.2246 35.1758 77.4825 34.0367 79.6012 33.9911C80.0796 33.9911 81.1048 34.105 81.7883 34.6518C82.2344 35.044 82.5186 35.5881 82.5857 36.1782C82.7089 36.9233 82.7471 37.68 82.6996 38.4337Z" fill="#0B1C2A"/>
</svg>
