<svg width="113" height="113" viewBox="0 0 113 113" fill="none" xmlns="http://www.w3.org/2000/svg">
<path d="M7.94531 7.94531C0 15.8906 0 28.6788 0 54.2299V58.7701C0 84.3212 0 97.1094 7.94531 105.055C15.8906 113 28.6788 113 54.2299 113H58.7701C84.3212 113 97.1094 113 105.055 105.055C113 97.1094 113 84.3212 113 58.7701V54.2299C113 28.6788 113 15.8906 105.055 7.94531C97.1094 0 84.3212 0 58.7701 0H54.2299C28.6788 0 15.8906 0 7.94531 7.94531ZM19.0687 34.3792H31.9578C32.3866 55.9451 41.8958 65.0759 49.4375 66.9424V34.3792H61.5951V52.9688C69.0359 52.1616 76.8299 43.6866 79.4783 34.3792H91.6359C90.627 39.1969 88.6596 43.7875 85.8094 47.8232C82.9592 51.8589 79.327 55.2641 75.0895 57.8116C79.8063 60.1574 83.9681 63.4616 87.2975 67.5478C90.6522 71.6087 93.0737 76.3254 94.4609 81.3953H81.0674C79.8567 77.0065 77.3344 73.0464 73.8788 70.0701C70.398 67.0685 66.1353 65.1768 61.5951 64.5966V81.3953H60.1321C34.3792 81.3953 19.6741 63.7391 19.0687 34.3792Z" fill="#0B1C2A"/>
</svg>
